<?xml version="1.0" encoding="UTF-8"?>
<svg xmlns="http://www.w3.org/2000/svg" xmlns:xlink="http://www.w3.org/1999/xlink" width="58px" height="71px" viewBox="0 0 15 18" version="1.1">
<g id="surface1">
<path style=" stroke:none;fill-rule:nonzero;fill:rgb(0.784314%,0.784314%,0.784314%);fill-opacity:1;" d="M 0 0 L 0 18 L 15 18 L 15 0 L 5.429688 0 L 5.429688 3.804688 L 5.171875 3.804688 L 5.171875 0 Z M 0 0 "/>
<path style=" stroke:none;fill-rule:nonzero;fill:rgb(18.039216%,18.039216%,18.039216%);fill-opacity:1;" d="M 5.171875 0 L 5.429688 0.253906 Z M 5.171875 0 "/>
<path style=" stroke:none;fill-rule:nonzero;fill:rgb(65.098039%,65.098039%,65.098039%);fill-opacity:1;" d="M 4.914062 0.253906 L 5.171875 0.507812 Z M 4.914062 0.253906 "/>
<path style=" stroke:none;fill-rule:nonzero;fill:rgb(96.862745%,96.862745%,96.862745%);fill-opacity:1;" d="M 5.171875 0.253906 L 5.171875 3.550781 L 5.429688 3.550781 C 5.761719 2.449219 5.90625 1.203125 5.171875 0.253906 Z M 5.171875 0.253906 "/>
<path style=" stroke:none;fill-rule:nonzero;fill:rgb(65.098039%,65.098039%,65.098039%);fill-opacity:1;" d="M 5.429688 0.253906 L 5.691406 0.507812 Z M 5.429688 0.253906 "/>
<path style=" stroke:none;fill-rule:nonzero;fill:rgb(38.039216%,38.039216%,38.039216%);fill-opacity:1;" d="M 1.808594 1.519531 L 2.070312 1.773438 Z M 1.808594 1.519531 "/>
<path style=" stroke:none;fill-rule:nonzero;fill:rgb(65.098039%,65.098039%,65.098039%);fill-opacity:1;" d="M 2.070312 1.519531 L 2.328125 1.773438 Z M 2.070312 1.519531 "/>
<path style=" stroke:none;fill-rule:nonzero;fill:rgb(38.039216%,38.039216%,38.039216%);fill-opacity:1;" d="M 2.328125 1.519531 L 2.585938 1.773438 L 2.328125 1.519531 M 8.015625 1.519531 L 8.277344 1.773438 Z M 8.015625 1.519531 "/>
<path style=" stroke:none;fill-rule:nonzero;fill:rgb(65.098039%,65.098039%,65.098039%);fill-opacity:1;" d="M 8.277344 1.519531 L 8.535156 1.773438 Z M 8.277344 1.519531 "/>
<path style=" stroke:none;fill-rule:nonzero;fill:rgb(38.039216%,38.039216%,38.039216%);fill-opacity:1;" d="M 8.535156 1.519531 L 8.792969 1.773438 Z M 8.535156 1.519531 "/>
<path style=" stroke:none;fill-rule:nonzero;fill:rgb(96.862745%,96.862745%,96.862745%);fill-opacity:1;" d="M 1.808594 1.773438 C 2.3125 2.914062 2.875 4.15625 4.136719 4.5625 C 3.636719 3.421875 3.070312 2.183594 1.808594 1.773438 Z M 1.808594 1.773438 "/>
<path style=" stroke:none;fill-rule:nonzero;fill:rgb(18.039216%,18.039216%,18.039216%);fill-opacity:1;" d="M 2.585938 1.773438 L 2.84375 2.027344 L 2.585938 1.773438 M 7.757812 1.773438 L 8.015625 2.027344 Z M 7.757812 1.773438 "/>
<path style=" stroke:none;fill-rule:nonzero;fill:rgb(96.862745%,96.862745%,96.862745%);fill-opacity:1;" d="M 8.015625 1.773438 L 6.464844 4.5625 C 7.726562 4.15625 8.292969 2.914062 8.792969 1.773438 Z M 8.015625 1.773438 "/>
<path style=" stroke:none;fill-rule:nonzero;fill:rgb(65.098039%,65.098039%,65.098039%);fill-opacity:1;" d="M 1.808594 2.027344 L 2.070312 2.28125 L 1.808594 2.027344 M 2.585938 2.027344 L 2.84375 2.28125 L 2.585938 2.027344 M 7.757812 2.027344 L 8.015625 2.28125 L 7.757812 2.027344 M 8.535156 2.027344 L 8.792969 2.28125 Z M 8.535156 2.027344 "/>
<path style=" stroke:none;fill-rule:nonzero;fill:rgb(18.039216%,18.039216%,18.039216%);fill-opacity:1;" d="M 1.808594 2.28125 L 2.070312 2.535156 Z M 1.808594 2.28125 "/>
<path style=" stroke:none;fill-rule:nonzero;fill:rgb(38.039216%,38.039216%,38.039216%);fill-opacity:1;" d="M 2.84375 2.28125 L 3.101562 2.535156 L 2.84375 2.28125 M 7.5 2.28125 L 7.757812 2.535156 Z M 7.5 2.28125 "/>
<path style=" stroke:none;fill-rule:nonzero;fill:rgb(18.039216%,18.039216%,18.039216%);fill-opacity:1;" d="M 8.535156 2.28125 L 8.792969 2.535156 L 8.535156 2.28125 M 11.121094 2.28125 L 11.121094 2.535156 L 11.898438 2.535156 Z M 11.121094 2.28125 "/>
<path style=" stroke:none;fill-rule:nonzero;fill:rgb(38.039216%,38.039216%,38.039216%);fill-opacity:1;" d="M 2.070312 2.535156 L 2.328125 2.789062 Z M 2.070312 2.535156 "/>
<path style=" stroke:none;fill-rule:nonzero;fill:rgb(18.039216%,18.039216%,18.039216%);fill-opacity:1;" d="M 3.101562 2.535156 L 3.363281 2.789062 L 3.101562 2.535156 M 7.242188 2.535156 L 7.5 2.789062 Z M 7.242188 2.535156 "/>
<path style=" stroke:none;fill-rule:nonzero;fill:rgb(38.039216%,38.039216%,38.039216%);fill-opacity:1;" d="M 8.277344 2.535156 L 8.535156 2.789062 Z M 8.277344 2.535156 "/>
<path style=" stroke:none;fill-rule:nonzero;fill:rgb(18.039216%,18.039216%,18.039216%);fill-opacity:1;" d="M 10.601562 2.535156 L 10.863281 2.789062 Z M 10.601562 2.535156 "/>
<path style=" stroke:none;fill-rule:nonzero;fill:rgb(65.098039%,65.098039%,65.098039%);fill-opacity:1;" d="M 10.863281 2.535156 L 11.121094 2.789062 Z M 10.863281 2.535156 "/>
<path style=" stroke:none;fill-rule:nonzero;fill:rgb(96.862745%,96.862745%,96.862745%);fill-opacity:1;" d="M 4.136719 9.125 C 3.878906 8.035156 1.871094 3.59375 0.675781 6.605469 C 0.128906 7.972656 1.34375 9.898438 1.824219 11.15625 C 2.480469 12.878906 2.964844 14.902344 4.40625 16.171875 C 7.234375 18.660156 13.664062 16.671875 14.054688 12.679688 C 14.148438 11.695312 12.777344 9.886719 12.273438 9.019531 C 11.796875 8.207031 11.734375 7.570312 10.863281 7.097656 C 11.476562 6.242188 12.652344 5.382812 12.832031 4.308594 C 13.0625 2.957031 11.675781 2.347656 10.601562 2.976562 C 8.183594 4.398438 6.128906 7.175781 4.136719 9.125 Z M 4.136719 9.125 "/>
<path style=" stroke:none;fill-rule:nonzero;fill:rgb(65.098039%,65.098039%,65.098039%);fill-opacity:1;" d="M 12.15625 2.535156 L 12.414062 2.789062 L 12.15625 2.535156 M 3.101562 2.789062 L 3.363281 3.042969 L 3.101562 2.789062 M 7.242188 2.789062 L 7.5 3.042969 Z M 7.242188 2.789062 "/>
<path style=" stroke:none;fill-rule:nonzero;fill:rgb(38.039216%,38.039216%,38.039216%);fill-opacity:1;" d="M 10.34375 2.789062 L 10.601562 3.042969 Z M 10.34375 2.789062 "/>
<path style=" stroke:none;fill-rule:nonzero;fill:rgb(65.098039%,65.098039%,65.098039%);fill-opacity:1;" d="M 12.414062 2.789062 L 12.671875 3.042969 Z M 12.414062 2.789062 "/>
<path style=" stroke:none;fill-rule:nonzero;fill:rgb(18.039216%,18.039216%,18.039216%);fill-opacity:1;" d="M 2.328125 3.042969 L 2.585938 3.296875 L 2.328125 3.042969 M 3.363281 3.042969 L 3.621094 3.296875 L 3.363281 3.042969 M 6.984375 3.042969 L 7.242188 3.296875 L 6.984375 3.042969 M 8.015625 3.042969 L 8.277344 3.296875 Z M 8.015625 3.042969 "/>
<path style=" stroke:none;fill-rule:nonzero;fill:rgb(38.039216%,38.039216%,38.039216%);fill-opacity:1;" d="M 10.085938 3.042969 L 10.34375 3.296875 Z M 10.085938 3.042969 "/>
<path style=" stroke:none;fill-rule:nonzero;fill:rgb(65.098039%,65.098039%,65.098039%);fill-opacity:1;" d="M 11.378906 3.042969 L 11.636719 3.296875 L 11.378906 3.042969 M 12.671875 3.042969 L 12.929688 3.296875 L 12.671875 3.042969 M 2.585938 3.296875 L 2.84375 3.550781 L 2.585938 3.296875 M 4.914062 3.296875 L 5.171875 3.550781 L 4.914062 3.296875 M 5.429688 3.296875 L 5.691406 3.550781 L 5.429688 3.296875 M 7.757812 3.296875 L 8.015625 3.550781 Z M 7.757812 3.296875 "/>
<path style=" stroke:none;fill-rule:nonzero;fill:rgb(38.039216%,38.039216%,38.039216%);fill-opacity:1;" d="M 9.828125 3.296875 L 10.085938 3.550781 Z M 9.828125 3.296875 "/>
<path style=" stroke:none;fill-rule:nonzero;fill:rgb(65.098039%,65.098039%,65.098039%);fill-opacity:1;" d="M 10.863281 3.296875 C 8.957031 5.164062 6.285156 9.039062 3.621094 9.632812 L 3.621094 9.886719 C 5.523438 9.914062 10.414062 5.105469 10.863281 3.296875 Z M 10.863281 3.296875 "/>
<path style=" stroke:none;fill-rule:nonzero;fill:rgb(18.039216%,18.039216%,18.039216%);fill-opacity:1;" d="M 11.121094 3.296875 L 11.378906 3.550781 Z M 11.121094 3.296875 "/>
<path style=" stroke:none;fill-rule:nonzero;fill:rgb(0.784314%,0.784314%,0.784314%);fill-opacity:1;" d="M 3.878906 10.140625 C 3.308594 8.78125 2.941406 7.050781 1.550781 6.339844 C 1.097656 7.976562 2.074219 9.636719 2.6875 11.15625 C 4.199219 14.890625 6.441406 18.523438 10.863281 15.464844 L 10.863281 15.210938 C 9.90625 14.109375 6.5 11.691406 6.910156 10.140625 C 7.59375 7.539062 12.566406 6.277344 11.898438 3.296875 Z M 3.878906 10.140625 "/>
<path style=" stroke:none;fill-rule:nonzero;fill:rgb(38.039216%,38.039216%,38.039216%);fill-opacity:1;" d="M 11.898438 3.296875 L 12.15625 3.550781 L 11.898438 3.296875 M 12.929688 3.296875 L 13.191406 3.550781 Z M 12.929688 3.296875 "/>
<path style=" stroke:none;fill-rule:nonzero;fill:rgb(65.098039%,65.098039%,65.098039%);fill-opacity:1;" d="M 3.621094 3.550781 L 3.878906 3.804688 Z M 3.621094 3.550781 "/>
<path style=" stroke:none;fill-rule:nonzero;fill:rgb(18.039216%,18.039216%,18.039216%);fill-opacity:1;" d="M 5.171875 3.550781 L 5.429688 3.804688 Z M 5.171875 3.550781 "/>
<path style=" stroke:none;fill-rule:nonzero;fill:rgb(65.098039%,65.098039%,65.098039%);fill-opacity:1;" d="M 6.722656 3.550781 L 6.984375 3.804688 Z M 6.722656 3.550781 "/>
<path style=" stroke:none;fill-rule:nonzero;fill:rgb(38.039216%,38.039216%,38.039216%);fill-opacity:1;" d="M 9.570312 3.550781 L 9.828125 3.804688 Z M 9.570312 3.550781 "/>
<path style=" stroke:none;fill-rule:nonzero;fill:rgb(65.098039%,65.098039%,65.098039%);fill-opacity:1;" d="M 12.15625 3.550781 L 12.414062 3.804688 L 12.15625 3.550781 M 12.929688 3.550781 L 12.929688 4.308594 L 13.191406 4.308594 Z M 12.929688 3.550781 "/>
<path style=" stroke:none;fill-rule:nonzero;fill:rgb(38.039216%,38.039216%,38.039216%);fill-opacity:1;" d="M 2.84375 3.804688 L 3.101562 4.054688 Z M 2.84375 3.804688 "/>
<path style=" stroke:none;fill-rule:nonzero;fill:rgb(18.039216%,18.039216%,18.039216%);fill-opacity:1;" d="M 3.878906 3.804688 L 4.136719 4.054688 L 3.878906 3.804688 M 6.464844 3.804688 L 6.722656 4.054688 Z M 6.464844 3.804688 "/>
<path style=" stroke:none;fill-rule:nonzero;fill:rgb(38.039216%,38.039216%,38.039216%);fill-opacity:1;" d="M 7.5 3.804688 L 7.757812 4.054688 L 7.5 3.804688 M 9.308594 3.804688 L 9.570312 4.054688 Z M 9.308594 3.804688 "/>
<path style=" stroke:none;fill-rule:nonzero;fill:rgb(18.039216%,18.039216%,18.039216%);fill-opacity:1;" d="M 12.15625 3.804688 L 12.414062 4.054688 Z M 12.15625 3.804688 "/>
<path style=" stroke:none;fill-rule:nonzero;fill:rgb(65.098039%,65.098039%,65.098039%);fill-opacity:1;" d="M 3.101562 4.054688 L 3.363281 4.308594 L 3.101562 4.054688 M 3.878906 4.054688 L 4.136719 4.308594 L 3.878906 4.054688 M 6.464844 4.054688 L 6.722656 4.308594 L 6.464844 4.054688 M 7.242188 4.054688 L 7.5 4.308594 Z M 7.242188 4.054688 "/>
<path style=" stroke:none;fill-rule:nonzero;fill:rgb(38.039216%,38.039216%,38.039216%);fill-opacity:1;" d="M 9.050781 4.054688 L 9.308594 4.308594 L 9.050781 4.054688 M 12.15625 4.054688 L 12.414062 4.308594 Z M 12.15625 4.054688 "/>
<path style=" stroke:none;fill-rule:nonzero;fill:rgb(18.039216%,18.039216%,18.039216%);fill-opacity:1;" d="M 3.101562 4.308594 L 3.363281 4.5625 L 3.101562 4.308594 M 7.242188 4.308594 L 7.5 4.5625 Z M 7.242188 4.308594 "/>
<path style=" stroke:none;fill-rule:nonzero;fill:rgb(38.039216%,38.039216%,38.039216%);fill-opacity:1;" d="M 8.792969 4.308594 L 9.050781 4.5625 Z M 8.792969 4.308594 "/>
<path style=" stroke:none;fill-rule:nonzero;fill:rgb(65.098039%,65.098039%,65.098039%);fill-opacity:1;" d="M 12.15625 4.308594 L 12.414062 4.5625 Z M 12.15625 4.308594 "/>
<path style=" stroke:none;fill-rule:nonzero;fill:rgb(38.039216%,38.039216%,38.039216%);fill-opacity:1;" d="M 12.929688 4.308594 L 13.191406 4.5625 L 12.929688 4.308594 M 3.363281 4.5625 L 3.621094 4.816406 Z M 3.363281 4.5625 "/>
<path style=" stroke:none;fill-rule:nonzero;fill:rgb(65.098039%,65.098039%,65.098039%);fill-opacity:1;" d="M 3.621094 4.5625 L 3.878906 4.816406 Z M 3.621094 4.5625 "/>
<path style=" stroke:none;fill-rule:nonzero;fill:rgb(38.039216%,38.039216%,38.039216%);fill-opacity:1;" d="M 3.878906 4.5625 L 4.136719 4.816406 L 3.878906 4.5625 M 6.464844 4.5625 L 6.722656 4.816406 Z M 6.464844 4.5625 "/>
<path style=" stroke:none;fill-rule:nonzero;fill:rgb(65.098039%,65.098039%,65.098039%);fill-opacity:1;" d="M 6.722656 4.5625 L 6.984375 4.816406 Z M 6.722656 4.5625 "/>
<path style=" stroke:none;fill-rule:nonzero;fill:rgb(38.039216%,38.039216%,38.039216%);fill-opacity:1;" d="M 6.984375 4.5625 L 7.242188 4.816406 L 6.984375 4.5625 M 8.535156 4.5625 L 8.792969 4.816406 Z M 8.535156 4.5625 "/>
<path style=" stroke:none;fill-rule:nonzero;fill:rgb(65.098039%,65.098039%,65.098039%);fill-opacity:1;" d="M 11.898438 4.5625 L 12.15625 4.816406 Z M 11.898438 4.5625 "/>
<path style=" stroke:none;fill-rule:nonzero;fill:rgb(18.039216%,18.039216%,18.039216%);fill-opacity:1;" d="M 12.929688 4.5625 L 13.191406 4.816406 Z M 12.929688 4.5625 "/>
<path style=" stroke:none;fill-rule:nonzero;fill:rgb(38.039216%,38.039216%,38.039216%);fill-opacity:1;" d="M 8.277344 4.816406 L 8.535156 5.070312 Z M 8.277344 4.816406 "/>
<path style=" stroke:none;fill-rule:nonzero;fill:rgb(65.098039%,65.098039%,65.098039%);fill-opacity:1;" d="M 11.636719 4.816406 L 11.898438 5.070312 Z M 11.636719 4.816406 "/>
<path style=" stroke:none;fill-rule:nonzero;fill:rgb(38.039216%,38.039216%,38.039216%);fill-opacity:1;" d="M 12.671875 4.816406 L 12.929688 5.070312 L 12.671875 4.816406 M 8.015625 5.070312 L 8.277344 5.324219 Z M 8.015625 5.070312 "/>
<path style=" stroke:none;fill-rule:nonzero;fill:rgb(65.098039%,65.098039%,65.098039%);fill-opacity:1;" d="M 11.378906 5.070312 L 11.636719 5.324219 L 11.378906 5.070312 M 12.414062 5.070312 L 12.671875 5.324219 Z M 12.414062 5.070312 "/>
<path style=" stroke:none;fill-rule:nonzero;fill:rgb(18.039216%,18.039216%,18.039216%);fill-opacity:1;" d="M 1.722656 5.410156 L 1.898438 5.492188 Z M 1.722656 5.410156 "/>
<path style=" stroke:none;fill-rule:nonzero;fill:rgb(38.039216%,38.039216%,38.039216%);fill-opacity:1;" d="M 7.757812 5.324219 L 8.015625 5.578125 Z M 7.757812 5.324219 "/>
<path style=" stroke:none;fill-rule:nonzero;fill:rgb(65.098039%,65.098039%,65.098039%);fill-opacity:1;" d="M 11.121094 5.324219 L 11.378906 5.578125 L 11.121094 5.324219 M 12.15625 5.324219 L 12.414062 5.578125 Z M 12.15625 5.324219 "/>
<path style=" stroke:none;fill-rule:nonzero;fill:rgb(38.039216%,38.039216%,38.039216%);fill-opacity:1;" d="M 1.035156 5.578125 L 1.292969 5.832031 Z M 1.035156 5.578125 "/>
<path style=" stroke:none;fill-rule:nonzero;fill:rgb(65.098039%,65.098039%,65.098039%);fill-opacity:1;" d="M 2.328125 5.578125 L 2.585938 5.832031 Z M 2.328125 5.578125 "/>
<path style=" stroke:none;fill-rule:nonzero;fill:rgb(18.039216%,18.039216%,18.039216%);fill-opacity:1;" d="M 2.585938 5.578125 L 2.84375 5.832031 Z M 2.585938 5.578125 "/>
<path style=" stroke:none;fill-rule:nonzero;fill:rgb(38.039216%,38.039216%,38.039216%);fill-opacity:1;" d="M 7.5 5.578125 L 7.757812 5.832031 Z M 7.5 5.578125 "/>
<path style=" stroke:none;fill-rule:nonzero;fill:rgb(65.098039%,65.098039%,65.098039%);fill-opacity:1;" d="M 10.863281 5.578125 L 11.121094 5.832031 L 10.863281 5.578125 M 11.898438 5.578125 L 12.15625 5.832031 L 11.898438 5.578125 M 0.777344 5.832031 L 1.035156 6.085938 Z M 0.777344 5.832031 "/>
<path style=" stroke:none;fill-rule:nonzero;fill:rgb(38.039216%,38.039216%,38.039216%);fill-opacity:1;" d="M 2.84375 5.832031 L 3.101562 6.085938 L 2.84375 5.832031 M 7.242188 5.832031 L 7.5 6.085938 Z M 7.242188 5.832031 "/>
<path style=" stroke:none;fill-rule:nonzero;fill:rgb(65.098039%,65.098039%,65.098039%);fill-opacity:1;" d="M 10.601562 5.832031 L 10.863281 6.085938 L 10.601562 5.832031 M 11.636719 5.832031 L 11.898438 6.085938 L 11.636719 5.832031 M 0.515625 6.085938 L 0.777344 6.339844 Z M 0.515625 6.085938 "/>
<path style=" stroke:none;fill-rule:nonzero;fill:rgb(18.039216%,18.039216%,18.039216%);fill-opacity:1;" d="M 3.101562 6.085938 L 3.363281 6.339844 Z M 3.101562 6.085938 "/>
<path style=" stroke:none;fill-rule:nonzero;fill:rgb(38.039216%,38.039216%,38.039216%);fill-opacity:1;" d="M 6.984375 6.085938 L 7.242188 6.339844 Z M 6.984375 6.085938 "/>
<path style=" stroke:none;fill-rule:nonzero;fill:rgb(65.098039%,65.098039%,65.098039%);fill-opacity:1;" d="M 10.34375 6.085938 L 10.601562 6.339844 L 10.34375 6.085938 M 11.378906 6.085938 L 11.636719 6.339844 Z M 11.378906 6.085938 "/>
<path style=" stroke:none;fill-rule:nonzero;fill:rgb(38.039216%,38.039216%,38.039216%);fill-opacity:1;" d="M 0.257812 6.339844 L 0.515625 6.589844 L 0.257812 6.339844 M 1.292969 6.339844 L 1.550781 6.589844 Z M 1.292969 6.339844 "/>
<path style=" stroke:none;fill-rule:nonzero;fill:rgb(18.039216%,18.039216%,18.039216%);fill-opacity:1;" d="M 2.070312 6.339844 L 2.328125 6.589844 Z M 2.070312 6.339844 "/>
<path style=" stroke:none;fill-rule:nonzero;fill:rgb(65.098039%,65.098039%,65.098039%);fill-opacity:1;" d="M 3.101562 6.339844 L 3.363281 6.589844 Z M 3.101562 6.339844 "/>
<path style=" stroke:none;fill-rule:nonzero;fill:rgb(38.039216%,38.039216%,38.039216%);fill-opacity:1;" d="M 6.722656 6.339844 L 6.984375 6.589844 Z M 6.722656 6.339844 "/>
<path style=" stroke:none;fill-rule:nonzero;fill:rgb(65.098039%,65.098039%,65.098039%);fill-opacity:1;" d="M 10.085938 6.339844 L 10.34375 6.589844 L 10.085938 6.339844 M 11.121094 6.339844 L 11.378906 6.589844 L 11.121094 6.339844 M 0.257812 6.589844 L 0.257812 7.605469 L 0.515625 7.605469 L 0.257812 6.589844 M 1.035156 6.589844 L 1.292969 6.84375 Z M 1.035156 6.589844 "/>
<path style=" stroke:none;fill-rule:nonzero;fill:rgb(18.039216%,18.039216%,18.039216%);fill-opacity:1;" d="M 2.328125 6.589844 L 2.585938 6.84375 L 2.328125 6.589844 M 3.363281 6.589844 L 3.621094 6.84375 Z M 3.363281 6.589844 "/>
<path style=" stroke:none;fill-rule:nonzero;fill:rgb(38.039216%,38.039216%,38.039216%);fill-opacity:1;" d="M 6.464844 6.589844 L 6.722656 6.84375 Z M 6.464844 6.589844 "/>
<path style=" stroke:none;fill-rule:nonzero;fill:rgb(65.098039%,65.098039%,65.098039%);fill-opacity:1;" d="M 9.828125 6.589844 L 10.085938 6.84375 L 9.828125 6.589844 M 10.949219 6.761719 L 11.035156 6.929688 Z M 10.949219 6.761719 "/>
<path style=" stroke:none;fill-rule:nonzero;fill:rgb(18.039216%,18.039216%,18.039216%);fill-opacity:1;" d="M 1.035156 6.84375 L 1.292969 7.097656 Z M 1.035156 6.84375 "/>
<path style=" stroke:none;fill-rule:nonzero;fill:rgb(65.098039%,65.098039%,65.098039%);fill-opacity:1;" d="M 2.585938 6.84375 L 2.84375 7.097656 Z M 2.585938 6.84375 "/>
<path style=" stroke:none;fill-rule:nonzero;fill:rgb(38.039216%,38.039216%,38.039216%);fill-opacity:1;" d="M 3.363281 6.84375 L 3.621094 7.097656 L 3.363281 6.84375 M 6.207031 6.84375 L 6.464844 7.097656 Z M 6.207031 6.84375 "/>
<path style=" stroke:none;fill-rule:nonzero;fill:rgb(65.098039%,65.098039%,65.098039%);fill-opacity:1;" d="M 9.570312 6.84375 L 9.828125 7.097656 Z M 9.570312 6.84375 "/>
<path style=" stroke:none;fill-rule:nonzero;fill:rgb(38.039216%,38.039216%,38.039216%);fill-opacity:1;" d="M 11.121094 6.84375 L 11.378906 7.097656 L 11.121094 6.84375 M 1.035156 7.097656 L 1.292969 7.351562 L 1.035156 7.097656 M 2.585938 7.097656 L 2.84375 7.351562 L 2.585938 7.097656 M 5.949219 7.097656 L 6.207031 7.351562 Z M 5.949219 7.097656 "/>
<path style=" stroke:none;fill-rule:nonzero;fill:rgb(65.098039%,65.098039%,65.098039%);fill-opacity:1;" d="M 9.308594 7.097656 L 9.570312 7.351562 L 9.308594 7.097656 M 11.378906 7.097656 L 11.636719 7.351562 L 11.378906 7.097656 M 1.035156 7.351562 L 1.292969 7.605469 Z M 1.035156 7.351562 "/>
<path style=" stroke:none;fill-rule:nonzero;fill:rgb(18.039216%,18.039216%,18.039216%);fill-opacity:1;" d="M 3.621094 7.351562 L 3.878906 7.605469 Z M 3.621094 7.351562 "/>
<path style=" stroke:none;fill-rule:nonzero;fill:rgb(38.039216%,38.039216%,38.039216%);fill-opacity:1;" d="M 5.691406 7.351562 L 5.949219 7.605469 Z M 5.691406 7.351562 "/>
<path style=" stroke:none;fill-rule:nonzero;fill:rgb(65.098039%,65.098039%,65.098039%);fill-opacity:1;" d="M 9.050781 7.351562 L 9.308594 7.605469 L 9.050781 7.351562 M 10.34375 7.351562 L 10.601562 7.605469 L 10.34375 7.351562 M 11.636719 7.351562 L 11.898438 7.605469 Z M 11.636719 7.351562 "/>
<path style=" stroke:none;fill-rule:nonzero;fill:rgb(18.039216%,18.039216%,18.039216%);fill-opacity:1;" d="M 0.257812 7.605469 L 0.515625 7.859375 Z M 0.257812 7.605469 "/>
<path style=" stroke:none;fill-rule:nonzero;fill:rgb(65.098039%,65.098039%,65.098039%);fill-opacity:1;" d="M 2.84375 7.605469 L 3.101562 7.859375 L 2.84375 7.605469 M 3.621094 7.605469 L 3.878906 7.859375 Z M 3.621094 7.605469 "/>
<path style=" stroke:none;fill-rule:nonzero;fill:rgb(38.039216%,38.039216%,38.039216%);fill-opacity:1;" d="M 5.429688 7.605469 L 5.691406 7.859375 Z M 5.429688 7.605469 "/>
<path style=" stroke:none;fill-rule:nonzero;fill:rgb(65.098039%,65.098039%,65.098039%);fill-opacity:1;" d="M 8.792969 7.605469 L 9.050781 7.859375 L 8.792969 7.605469 M 9.828125 7.605469 L 7.5 10.140625 Z M 9.828125 7.605469 "/>
<path style=" stroke:none;fill-rule:nonzero;fill:rgb(0.784314%,0.784314%,0.784314%);fill-opacity:1;" d="M 8.015625 11.15625 C 8.515625 10.925781 8.898438 10.71875 9.316406 10.355469 C 9.578125 10.132812 9.839844 9.886719 10.070312 9.632812 C 12.542969 6.914062 7.382812 8.324219 8.015625 11.15625 Z M 8.015625 11.15625 "/>
<path style=" stroke:none;fill-rule:nonzero;fill:rgb(65.098039%,65.098039%,65.098039%);fill-opacity:1;" d="M 10.863281 7.605469 L 11.121094 7.859375 Z M 10.863281 7.605469 "/>
<path style=" stroke:none;fill-rule:nonzero;fill:rgb(18.039216%,18.039216%,18.039216%);fill-opacity:1;" d="M 11.898438 7.605469 L 12.15625 7.859375 Z M 11.898438 7.605469 "/>
<path style=" stroke:none;fill-rule:nonzero;fill:rgb(38.039216%,38.039216%,38.039216%);fill-opacity:1;" d="M 1.292969 7.859375 L 1.550781 8.113281 Z M 1.292969 7.859375 "/>
<path style=" stroke:none;fill-rule:nonzero;fill:rgb(18.039216%,18.039216%,18.039216%);fill-opacity:1;" d="M 2.84375 7.859375 L 3.101562 8.113281 Z M 2.84375 7.859375 "/>
<path style=" stroke:none;fill-rule:nonzero;fill:rgb(38.039216%,38.039216%,38.039216%);fill-opacity:1;" d="M 5.171875 7.859375 L 5.429688 8.113281 Z M 5.171875 7.859375 "/>
<path style=" stroke:none;fill-rule:nonzero;fill:rgb(65.098039%,65.098039%,65.098039%);fill-opacity:1;" d="M 8.535156 7.859375 L 8.792969 8.113281 L 8.535156 7.859375 M 11.121094 7.859375 L 11.378906 8.113281 Z M 11.121094 7.859375 "/>
<path style=" stroke:none;fill-rule:nonzero;fill:rgb(38.039216%,38.039216%,38.039216%);fill-opacity:1;" d="M 11.898438 7.859375 L 11.898438 8.621094 L 12.15625 8.621094 L 11.898438 7.859375 M 0.515625 8.113281 L 0.777344 8.367188 Z M 0.515625 8.113281 "/>
<path style=" stroke:none;fill-rule:nonzero;fill:rgb(65.098039%,65.098039%,65.098039%);fill-opacity:1;" d="M 1.292969 8.113281 L 1.550781 8.367188 Z M 1.292969 8.113281 "/>
<path style=" stroke:none;fill-rule:nonzero;fill:rgb(38.039216%,38.039216%,38.039216%);fill-opacity:1;" d="M 3.878906 8.113281 L 4.136719 8.367188 L 3.878906 8.113281 M 4.914062 8.113281 L 5.171875 8.367188 Z M 4.914062 8.113281 "/>
<path style=" stroke:none;fill-rule:nonzero;fill:rgb(65.098039%,65.098039%,65.098039%);fill-opacity:1;" d="M 8.277344 8.113281 L 8.535156 8.367188 Z M 8.277344 8.113281 "/>
<path style=" stroke:none;fill-rule:nonzero;fill:rgb(38.039216%,38.039216%,38.039216%);fill-opacity:1;" d="M 11.121094 8.113281 L 11.378906 8.367188 Z M 11.121094 8.113281 "/>
<path style=" stroke:none;fill-rule:nonzero;fill:rgb(18.039216%,18.039216%,18.039216%);fill-opacity:1;" d="M 0.515625 8.367188 L 0.777344 8.621094 L 0.515625 8.367188 M 1.550781 8.367188 L 1.808594 8.621094 Z M 1.550781 8.367188 "/>
<path style=" stroke:none;fill-rule:nonzero;fill:rgb(38.039216%,38.039216%,38.039216%);fill-opacity:1;" d="M 3.101562 8.367188 L 3.363281 8.621094 Z M 3.101562 8.367188 "/>
<path style=" stroke:none;fill-rule:nonzero;fill:rgb(65.098039%,65.098039%,65.098039%);fill-opacity:1;" d="M 3.878906 8.367188 L 4.136719 8.621094 Z M 3.878906 8.367188 "/>
<path style=" stroke:none;fill-rule:nonzero;fill:rgb(38.039216%,38.039216%,38.039216%);fill-opacity:1;" d="M 4.65625 8.367188 L 4.914062 8.621094 Z M 4.65625 8.367188 "/>
<path style=" stroke:none;fill-rule:nonzero;fill:rgb(65.098039%,65.098039%,65.098039%);fill-opacity:1;" d="M 8.015625 8.367188 L 8.277344 8.621094 L 8.015625 8.367188 M 11.121094 8.367188 L 11.378906 8.621094 L 11.121094 8.367188 M 0.777344 8.621094 L 1.035156 8.875 Z M 0.777344 8.621094 "/>
<path style=" stroke:none;fill-rule:nonzero;fill:rgb(38.039216%,38.039216%,38.039216%);fill-opacity:1;" d="M 1.550781 8.621094 L 1.808594 8.875 Z M 1.550781 8.621094 "/>
<path style=" stroke:none;fill-rule:nonzero;fill:rgb(18.039216%,18.039216%,18.039216%);fill-opacity:1;" d="M 3.101562 8.621094 L 3.363281 8.875 L 3.101562 8.621094 M 4.136719 8.621094 L 4.398438 8.875 Z M 4.136719 8.621094 "/>
<path style=" stroke:none;fill-rule:nonzero;fill:rgb(38.039216%,38.039216%,38.039216%);fill-opacity:1;" d="M 4.398438 8.621094 L 4.65625 8.875 Z M 4.398438 8.621094 "/>
<path style=" stroke:none;fill-rule:nonzero;fill:rgb(65.098039%,65.098039%,65.098039%);fill-opacity:1;" d="M 7.757812 8.621094 L 8.015625 8.875 Z M 7.757812 8.621094 "/>
<path style=" stroke:none;fill-rule:nonzero;fill:rgb(18.039216%,18.039216%,18.039216%);fill-opacity:1;" d="M 10.863281 8.621094 L 11.121094 8.875 L 10.863281 8.621094 M 11.898438 8.621094 L 12.414062 9.125 Z M 11.898438 8.621094 "/>
<path style=" stroke:none;fill-rule:nonzero;fill:rgb(38.039216%,38.039216%,38.039216%);fill-opacity:1;" d="M 0.777344 8.875 L 1.035156 9.125 Z M 0.777344 8.875 "/>
<path style=" stroke:none;fill-rule:nonzero;fill:rgb(65.098039%,65.098039%,65.098039%);fill-opacity:1;" d="M 3.363281 8.875 L 3.621094 9.125 L 3.363281 8.875 M 4.136719 8.875 L 4.398438 9.125 L 4.136719 8.875 M 7.5 8.875 L 7.757812 9.125 Z M 7.5 8.875 "/>
<path style=" stroke:none;fill-rule:nonzero;fill:rgb(18.039216%,18.039216%,18.039216%);fill-opacity:1;" d="M 10.601562 8.875 L 10.863281 9.125 Z M 10.601562 8.875 "/>
<path style=" stroke:none;fill-rule:nonzero;fill:rgb(38.039216%,38.039216%,38.039216%);fill-opacity:1;" d="M 11.898438 8.875 L 12.15625 9.125 Z M 11.898438 8.875 "/>
<path style=" stroke:none;fill-rule:nonzero;fill:rgb(18.039216%,18.039216%,18.039216%);fill-opacity:1;" d="M 1.808594 9.125 L 2.070312 9.378906 Z M 1.808594 9.125 "/>
<path style=" stroke:none;fill-rule:nonzero;fill:rgb(38.039216%,38.039216%,38.039216%);fill-opacity:1;" d="M 3.363281 9.125 L 3.621094 9.378906 Z M 3.363281 9.125 "/>
<path style=" stroke:none;fill-rule:nonzero;fill:rgb(65.098039%,65.098039%,65.098039%);fill-opacity:1;" d="M 7.242188 9.125 L 7.5 9.378906 Z M 7.242188 9.125 "/>
<path style=" stroke:none;fill-rule:nonzero;fill:rgb(18.039216%,18.039216%,18.039216%);fill-opacity:1;" d="M 10.34375 9.125 L 10.601562 9.378906 Z M 10.34375 9.125 "/>
<path style=" stroke:none;fill-rule:nonzero;fill:rgb(38.039216%,38.039216%,38.039216%);fill-opacity:1;" d="M 12.414062 9.125 L 12.671875 9.378906 Z M 12.414062 9.125 "/>
<path style=" stroke:none;fill-rule:nonzero;fill:rgb(65.098039%,65.098039%,65.098039%);fill-opacity:1;" d="M 1.035156 9.378906 L 1.292969 9.632812 L 1.035156 9.378906 M 1.808594 9.378906 L 2.070312 9.632812 L 1.808594 9.378906 M 6.984375 9.378906 L 7.242188 9.632812 Z M 6.984375 9.378906 "/>
<path style=" stroke:none;fill-rule:nonzero;fill:rgb(18.039216%,18.039216%,18.039216%);fill-opacity:1;" d="M 10.085938 9.378906 L 10.34375 9.632812 Z M 10.085938 9.378906 "/>
<path style=" stroke:none;fill-rule:nonzero;fill:rgb(38.039216%,38.039216%,38.039216%);fill-opacity:1;" d="M 12.671875 9.378906 L 12.929688 9.632812 Z M 12.671875 9.378906 "/>
<path style=" stroke:none;fill-rule:nonzero;fill:rgb(18.039216%,18.039216%,18.039216%);fill-opacity:1;" d="M 1.035156 9.632812 L 1.292969 9.886719 Z M 1.035156 9.632812 "/>
<path style=" stroke:none;fill-rule:nonzero;fill:rgb(38.039216%,38.039216%,38.039216%);fill-opacity:1;" d="M 6.722656 9.632812 L 6.984375 9.886719 Z M 6.722656 9.632812 "/>
<path style=" stroke:none;fill-rule:nonzero;fill:rgb(18.039216%,18.039216%,18.039216%);fill-opacity:1;" d="M 9.828125 9.632812 L 10.085938 9.886719 Z M 9.828125 9.632812 "/>
<path style=" stroke:none;fill-rule:nonzero;fill:rgb(65.098039%,65.098039%,65.098039%);fill-opacity:1;" d="M 11.121094 9.632812 L 11.378906 9.886719 Z M 11.121094 9.632812 "/>
<path style=" stroke:none;fill-rule:nonzero;fill:rgb(38.039216%,38.039216%,38.039216%);fill-opacity:1;" d="M 11.550781 9.71875 L 11.722656 9.804688 Z M 11.550781 9.71875 "/>
<path style=" stroke:none;fill-rule:nonzero;fill:rgb(65.098039%,65.098039%,65.098039%);fill-opacity:1;" d="M 11.898438 9.632812 L 12.414062 10.140625 Z M 11.898438 9.632812 "/>
<path style=" stroke:none;fill-rule:nonzero;fill:rgb(18.039216%,18.039216%,18.039216%);fill-opacity:1;" d="M 12.929688 9.632812 L 13.191406 9.886719 Z M 12.929688 9.632812 "/>
<path style=" stroke:none;fill-rule:nonzero;fill:rgb(65.098039%,65.098039%,65.098039%);fill-opacity:1;" d="M 1.292969 9.886719 L 1.550781 10.140625 Z M 1.292969 9.886719 "/>
<path style=" stroke:none;fill-rule:nonzero;fill:rgb(38.039216%,38.039216%,38.039216%);fill-opacity:1;" d="M 2.070312 9.886719 L 2.328125 10.140625 Z M 2.070312 9.886719 "/>
<path style=" stroke:none;fill-rule:nonzero;fill:rgb(65.098039%,65.098039%,65.098039%);fill-opacity:1;" d="M 6.722656 9.886719 L 6.984375 10.140625 Z M 6.722656 9.886719 "/>
<path style=" stroke:none;fill-rule:nonzero;fill:rgb(18.039216%,18.039216%,18.039216%);fill-opacity:1;" d="M 9.570312 9.886719 L 9.828125 10.140625 Z M 9.570312 9.886719 "/>
<path style=" stroke:none;fill-rule:nonzero;fill:rgb(38.039216%,38.039216%,38.039216%);fill-opacity:1;" d="M 10.863281 9.886719 L 9.308594 11.660156 Z M 10.863281 9.886719 "/>
<path style=" stroke:none;fill-rule:nonzero;fill:rgb(0.784314%,0.784314%,0.784314%);fill-opacity:1;" d="M 12.15625 9.886719 C 11.542969 9.980469 8.460938 11.582031 9.738281 12.378906 C 10.898438 13.09375 12.035156 10.640625 12.15625 9.886719 Z M 12.15625 9.886719 "/>
<path style=" stroke:none;fill-rule:nonzero;fill:rgb(38.039216%,38.039216%,38.039216%);fill-opacity:1;" d="M 12.929688 9.886719 L 13.191406 10.140625 L 12.929688 9.886719 M 1.292969 10.140625 L 1.550781 10.394531 Z M 1.292969 10.140625 "/>
<path style=" stroke:none;fill-rule:nonzero;fill:rgb(65.098039%,65.098039%,65.098039%);fill-opacity:1;" d="M 2.070312 10.140625 L 2.328125 10.394531 Z M 2.070312 10.140625 "/>
<path style=" stroke:none;fill-rule:nonzero;fill:rgb(18.039216%,18.039216%,18.039216%);fill-opacity:1;" d="M 7.585938 10.308594 L 7.671875 10.480469 L 7.585938 10.308594 M 9.308594 10.140625 L 9.570312 10.394531 Z M 9.308594 10.140625 "/>
<path style=" stroke:none;fill-rule:nonzero;fill:rgb(38.039216%,38.039216%,38.039216%);fill-opacity:1;" d="M 12.15625 10.140625 L 12.414062 10.394531 Z M 12.15625 10.140625 "/>
<path style=" stroke:none;fill-rule:nonzero;fill:rgb(65.098039%,65.098039%,65.098039%);fill-opacity:1;" d="M 12.929688 10.140625 L 12.929688 10.902344 L 13.191406 10.902344 Z M 12.929688 10.140625 "/>
<path style=" stroke:none;fill-rule:nonzero;fill:rgb(18.039216%,18.039216%,18.039216%);fill-opacity:1;" d="M 1.292969 10.394531 L 1.550781 10.648438 L 1.292969 10.394531 M 2.328125 10.394531 L 2.585938 10.648438 L 2.328125 10.394531 M 9.050781 10.394531 L 9.308594 10.648438 L 9.050781 10.394531 M 12.15625 10.394531 L 12.414062 10.648438 Z M 12.15625 10.394531 "/>
<path style=" stroke:none;fill-rule:nonzero;fill:rgb(65.098039%,65.098039%,65.098039%);fill-opacity:1;" d="M 1.550781 10.648438 L 1.808594 10.902344 L 1.550781 10.648438 M 2.328125 10.648438 L 2.585938 10.902344 Z M 2.328125 10.648438 "/>
<path style=" stroke:none;fill-rule:nonzero;fill:rgb(38.039216%,38.039216%,38.039216%);fill-opacity:1;" d="M 7.5 10.648438 L 7.757812 10.902344 Z M 7.5 10.648438 "/>
<path style=" stroke:none;fill-rule:nonzero;fill:rgb(18.039216%,18.039216%,18.039216%);fill-opacity:1;" d="M 8.792969 10.648438 L 9.050781 10.902344 Z M 8.792969 10.648438 "/>
<path style=" stroke:none;fill-rule:nonzero;fill:rgb(65.098039%,65.098039%,65.098039%);fill-opacity:1;" d="M 12.15625 10.648438 L 12.414062 10.902344 Z M 12.15625 10.648438 "/>
<path style=" stroke:none;fill-rule:nonzero;fill:rgb(38.039216%,38.039216%,38.039216%);fill-opacity:1;" d="M 1.550781 10.902344 L 1.808594 11.15625 Z M 1.550781 10.902344 "/>
<path style=" stroke:none;fill-rule:nonzero;fill:rgb(65.098039%,65.098039%,65.098039%);fill-opacity:1;" d="M 6.722656 10.902344 L 6.984375 11.15625 Z M 6.722656 10.902344 "/>
<path style=" stroke:none;fill-rule:nonzero;fill:rgb(18.039216%,18.039216%,18.039216%);fill-opacity:1;" d="M 7.757812 10.902344 L 8.015625 11.15625 L 7.757812 10.902344 M 8.535156 10.902344 L 8.792969 11.15625 Z M 8.535156 10.902344 "/>
<path style=" stroke:none;fill-rule:nonzero;fill:rgb(38.039216%,38.039216%,38.039216%);fill-opacity:1;" d="M 11.898438 10.902344 L 12.15625 11.15625 L 11.898438 10.902344 M 12.929688 10.902344 L 13.191406 11.15625 L 12.929688 10.902344 M 2.585938 11.15625 L 2.84375 11.410156 Z M 2.585938 11.15625 "/>
<path style=" stroke:none;fill-rule:nonzero;fill:rgb(65.098039%,65.098039%,65.098039%);fill-opacity:1;" d="M 8.191406 11.238281 L 8.363281 11.324219 Z M 8.191406 11.238281 "/>
<path style=" stroke:none;fill-rule:nonzero;fill:rgb(38.039216%,38.039216%,38.039216%);fill-opacity:1;" d="M 11.636719 11.15625 L 11.898438 11.410156 Z M 11.636719 11.15625 "/>
<path style=" stroke:none;fill-rule:nonzero;fill:rgb(65.098039%,65.098039%,65.098039%);fill-opacity:1;" d="M 13.191406 11.15625 L 13.449219 11.410156 Z M 13.191406 11.15625 "/>
<path style=" stroke:none;fill-rule:nonzero;fill:rgb(18.039216%,18.039216%,18.039216%);fill-opacity:1;" d="M 13.449219 11.15625 L 13.707031 11.410156 Z M 13.449219 11.15625 "/>
<path style=" stroke:none;fill-rule:nonzero;fill:rgb(65.098039%,65.098039%,65.098039%);fill-opacity:1;" d="M 1.808594 11.410156 L 2.070312 11.660156 L 1.808594 11.410156 M 2.585938 11.410156 L 2.84375 11.660156 Z M 2.585938 11.410156 "/>
<path style=" stroke:none;fill-rule:nonzero;fill:rgb(18.039216%,18.039216%,18.039216%);fill-opacity:1;" d="M 6.984375 11.410156 L 7.242188 11.660156 Z M 6.984375 11.410156 "/>
<path style=" stroke:none;fill-rule:nonzero;fill:rgb(38.039216%,38.039216%,38.039216%);fill-opacity:1;" d="M 11.378906 11.410156 L 11.636719 11.660156 Z M 11.378906 11.410156 "/>
<path style=" stroke:none;fill-rule:nonzero;fill:rgb(18.039216%,18.039216%,18.039216%);fill-opacity:1;" d="M 13.707031 11.410156 L 13.964844 11.660156 L 13.707031 11.410156 M 1.808594 11.660156 L 2.070312 11.914062 L 1.808594 11.660156 M 2.84375 11.660156 L 3.101562 11.914062 L 2.84375 11.660156 M 7.242188 11.660156 L 7.5 11.914062 Z M 7.242188 11.660156 "/>
<path style=" stroke:none;fill-rule:nonzero;fill:rgb(65.098039%,65.098039%,65.098039%);fill-opacity:1;" d="M 7.5 11.660156 L 7.757812 11.914062 L 7.5 11.660156 M 9.050781 11.660156 L 9.308594 11.914062 Z M 9.050781 11.660156 "/>
<path style=" stroke:none;fill-rule:nonzero;fill:rgb(38.039216%,38.039216%,38.039216%);fill-opacity:1;" d="M 11.121094 11.660156 L 11.378906 11.914062 Z M 11.121094 11.660156 "/>
<path style=" stroke:none;fill-rule:nonzero;fill:rgb(65.098039%,65.098039%,65.098039%);fill-opacity:1;" d="M 12.585938 11.746094 L 12.757812 11.832031 Z M 12.585938 11.746094 "/>
<path style=" stroke:none;fill-rule:nonzero;fill:rgb(18.039216%,18.039216%,18.039216%);fill-opacity:1;" d="M 13.964844 11.660156 L 14.222656 11.914062 Z M 13.964844 11.660156 "/>
<path style=" stroke:none;fill-rule:nonzero;fill:rgb(65.098039%,65.098039%,65.098039%);fill-opacity:1;" d="M 2.070312 11.914062 L 2.328125 12.167969 Z M 2.070312 11.914062 "/>
<path style=" stroke:none;fill-rule:nonzero;fill:rgb(38.039216%,38.039216%,38.039216%);fill-opacity:1;" d="M 2.84375 11.914062 L 3.101562 12.167969 Z M 2.84375 11.914062 "/>
<path style=" stroke:none;fill-rule:nonzero;fill:rgb(18.039216%,18.039216%,18.039216%);fill-opacity:1;" d="M 7.929688 12 L 8.101562 12.085938 Z M 7.929688 12 "/>
<path style=" stroke:none;fill-rule:nonzero;fill:rgb(65.098039%,65.098039%,65.098039%);fill-opacity:1;" d="M 8.363281 12.085938 L 8.449219 12.253906 Z M 8.363281 12.085938 "/>
<path style=" stroke:none;fill-rule:nonzero;fill:rgb(38.039216%,38.039216%,38.039216%);fill-opacity:1;" d="M 9.050781 11.914062 L 9.308594 12.167969 L 9.050781 11.914062 M 10.863281 11.914062 L 11.121094 12.167969 Z M 10.863281 11.914062 "/>
<path style=" stroke:none;fill-rule:nonzero;fill:rgb(18.039216%,18.039216%,18.039216%);fill-opacity:1;" d="M 12.15625 11.914062 L 10.863281 13.4375 Z M 12.15625 11.914062 "/>
<path style=" stroke:none;fill-rule:nonzero;fill:rgb(0.784314%,0.784314%,0.784314%);fill-opacity:1;" d="M 10.863281 13.945312 C 14.078125 14.640625 12.675781 10.148438 10.863281 13.945312 Z M 10.863281 13.945312 "/>
<path style=" stroke:none;fill-rule:nonzero;fill:rgb(18.039216%,18.039216%,18.039216%);fill-opacity:1;" d="M 12.929688 11.914062 L 13.191406 12.167969 Z M 12.929688 11.914062 "/>
<path style=" stroke:none;fill-rule:nonzero;fill:rgb(65.098039%,65.098039%,65.098039%);fill-opacity:1;" d="M 13.964844 11.914062 L 14.222656 12.167969 Z M 13.964844 11.914062 "/>
<path style=" stroke:none;fill-rule:nonzero;fill:rgb(38.039216%,38.039216%,38.039216%);fill-opacity:1;" d="M 2.070312 12.167969 L 2.328125 12.421875 Z M 2.070312 12.167969 "/>
<path style=" stroke:none;fill-rule:nonzero;fill:rgb(65.098039%,65.098039%,65.098039%);fill-opacity:1;" d="M 2.84375 12.167969 L 3.101562 12.421875 L 2.84375 12.167969 M 9.050781 12.167969 L 9.308594 12.421875 Z M 9.050781 12.167969 "/>
<path style=" stroke:none;fill-rule:nonzero;fill:rgb(38.039216%,38.039216%,38.039216%);fill-opacity:1;" d="M 10.601562 12.167969 L 10.863281 12.421875 L 10.601562 12.167969 M 13.191406 12.167969 L 13.449219 12.421875 Z M 13.191406 12.167969 "/>
<path style=" stroke:none;fill-rule:nonzero;fill:rgb(18.039216%,18.039216%,18.039216%);fill-opacity:1;" d="M 3.101562 12.421875 L 3.363281 12.675781 Z M 3.101562 12.421875 "/>
<path style=" stroke:none;fill-rule:nonzero;fill:rgb(38.039216%,38.039216%,38.039216%);fill-opacity:1;" d="M 8.277344 12.421875 L 8.535156 12.675781 Z M 8.277344 12.421875 "/>
<path style=" stroke:none;fill-rule:nonzero;fill:rgb(18.039216%,18.039216%,18.039216%);fill-opacity:1;" d="M 9.308594 12.421875 L 9.570312 12.675781 Z M 9.308594 12.421875 "/>
<path style=" stroke:none;fill-rule:nonzero;fill:rgb(38.039216%,38.039216%,38.039216%);fill-opacity:1;" d="M 10.34375 12.421875 L 10.601562 12.675781 Z M 10.34375 12.421875 "/>
<path style=" stroke:none;fill-rule:nonzero;fill:rgb(65.098039%,65.098039%,65.098039%);fill-opacity:1;" d="M 2.328125 12.675781 L 2.585938 12.929688 L 2.328125 12.675781 M 3.101562 12.675781 L 3.363281 12.929688 L 3.101562 12.675781 M 9.570312 12.675781 L 9.828125 12.929688 Z M 9.570312 12.675781 "/>
<path style=" stroke:none;fill-rule:nonzero;fill:rgb(38.039216%,38.039216%,38.039216%);fill-opacity:1;" d="M 9.828125 12.675781 L 10.085938 12.929688 Z M 9.828125 12.675781 "/>
<path style=" stroke:none;fill-rule:nonzero;fill:rgb(65.098039%,65.098039%,65.098039%);fill-opacity:1;" d="M 10.085938 12.675781 L 10.34375 12.929688 Z M 10.085938 12.675781 "/>
<path style=" stroke:none;fill-rule:nonzero;fill:rgb(18.039216%,18.039216%,18.039216%);fill-opacity:1;" d="M 13.191406 12.675781 L 13.449219 12.929688 L 13.191406 12.675781 M 2.328125 12.929688 L 2.585938 13.183594 L 2.328125 12.929688 M 8.535156 12.929688 L 8.792969 13.183594 Z M 8.535156 12.929688 "/>
<path style=" stroke:none;fill-rule:nonzero;fill:rgb(65.098039%,65.098039%,65.098039%);fill-opacity:1;" d="M 13.191406 12.929688 L 13.449219 13.183594 L 13.191406 12.929688 M 13.964844 12.929688 L 14.222656 13.183594 Z M 13.964844 12.929688 "/>
<path style=" stroke:none;fill-rule:nonzero;fill:rgb(38.039216%,38.039216%,38.039216%);fill-opacity:1;" d="M 3.363281 13.183594 L 3.621094 13.4375 Z M 3.363281 13.183594 "/>
<path style=" stroke:none;fill-rule:nonzero;fill:rgb(18.039216%,18.039216%,18.039216%);fill-opacity:1;" d="M 8.792969 13.183594 L 9.050781 13.4375 Z M 8.792969 13.183594 "/>
<path style=" stroke:none;fill-rule:nonzero;fill:rgb(38.039216%,38.039216%,38.039216%);fill-opacity:1;" d="M 12.929688 13.183594 L 13.191406 13.4375 L 12.929688 13.183594 M 13.964844 13.183594 L 14.222656 13.4375 L 13.964844 13.183594 M 2.585938 13.4375 L 2.84375 13.691406 Z M 2.585938 13.4375 "/>
<path style=" stroke:none;fill-rule:nonzero;fill:rgb(65.098039%,65.098039%,65.098039%);fill-opacity:1;" d="M 3.363281 13.4375 L 3.621094 13.691406 Z M 3.363281 13.4375 "/>
<path style=" stroke:none;fill-rule:nonzero;fill:rgb(38.039216%,38.039216%,38.039216%);fill-opacity:1;" d="M 9.308594 13.4375 L 9.570312 13.691406 Z M 9.308594 13.4375 "/>
<path style=" stroke:none;fill-rule:nonzero;fill:rgb(65.098039%,65.098039%,65.098039%);fill-opacity:1;" d="M 9.742188 13.519531 L 9.914062 13.605469 L 9.742188 13.519531 M 10.691406 13.605469 L 10.777344 13.773438 L 10.691406 13.605469 M 12.671875 13.4375 L 12.929688 13.691406 L 12.671875 13.4375 M 13.707031 13.4375 L 13.964844 13.691406 Z M 13.707031 13.4375 "/>
<path style=" stroke:none;fill-rule:nonzero;fill:rgb(18.039216%,18.039216%,18.039216%);fill-opacity:1;" d="M 2.585938 13.691406 L 2.84375 13.945312 L 2.585938 13.691406 M 3.621094 13.691406 L 3.878906 13.945312 L 3.621094 13.691406 M 9.914062 13.859375 L 10 14.027344 Z M 9.914062 13.859375 "/>
<path style=" stroke:none;fill-rule:nonzero;fill:rgb(65.098039%,65.098039%,65.098039%);fill-opacity:1;" d="M 12.414062 13.691406 L 12.671875 13.945312 L 12.414062 13.691406 M 13.449219 13.691406 L 13.707031 13.945312 L 13.449219 13.691406 M 2.84375 13.945312 L 3.101562 14.195312 Z M 2.84375 13.945312 "/>
<path style=" stroke:none;fill-rule:nonzero;fill:rgb(38.039216%,38.039216%,38.039216%);fill-opacity:1;" d="M 3.621094 13.945312 L 3.878906 14.195312 Z M 3.621094 13.945312 "/>
<path style=" stroke:none;fill-rule:nonzero;fill:rgb(18.039216%,18.039216%,18.039216%);fill-opacity:1;" d="M 10.863281 13.945312 L 11.121094 14.195312 Z M 10.863281 13.945312 "/>
<path style=" stroke:none;fill-rule:nonzero;fill:rgb(65.098039%,65.098039%,65.098039%);fill-opacity:1;" d="M 12.15625 13.945312 L 12.414062 14.195312 L 12.15625 13.945312 M 13.191406 13.945312 L 13.449219 14.195312 Z M 13.191406 13.945312 "/>
<path style=" stroke:none;fill-rule:nonzero;fill:rgb(38.039216%,38.039216%,38.039216%);fill-opacity:1;" d="M 2.84375 14.195312 L 3.101562 14.449219 Z M 2.84375 14.195312 "/>
<path style=" stroke:none;fill-rule:nonzero;fill:rgb(65.098039%,65.098039%,65.098039%);fill-opacity:1;" d="M 10.085938 14.195312 L 10.34375 14.449219 Z M 10.085938 14.195312 "/>
<path style=" stroke:none;fill-rule:nonzero;fill:rgb(38.039216%,38.039216%,38.039216%);fill-opacity:1;" d="M 11.121094 14.195312 L 11.378906 14.449219 Z M 11.121094 14.195312 "/>
<path style=" stroke:none;fill-rule:nonzero;fill:rgb(18.039216%,18.039216%,18.039216%);fill-opacity:1;" d="M 11.550781 14.28125 L 11.722656 14.367188 Z M 11.550781 14.28125 "/>
<path style=" stroke:none;fill-rule:nonzero;fill:rgb(65.098039%,65.098039%,65.098039%);fill-opacity:1;" d="M 11.898438 14.195312 L 12.15625 14.449219 L 11.898438 14.195312 M 12.929688 14.195312 L 13.191406 14.449219 Z M 12.929688 14.195312 "/>
<path style=" stroke:none;fill-rule:nonzero;fill:rgb(38.039216%,38.039216%,38.039216%);fill-opacity:1;" d="M 3.878906 14.449219 L 4.136719 14.703125 Z M 3.878906 14.449219 "/>
<path style=" stroke:none;fill-rule:nonzero;fill:rgb(18.039216%,18.039216%,18.039216%);fill-opacity:1;" d="M 10.085938 14.449219 L 10.34375 14.703125 Z M 10.085938 14.449219 "/>
<path style=" stroke:none;fill-rule:nonzero;fill:rgb(65.098039%,65.098039%,65.098039%);fill-opacity:1;" d="M 12.671875 14.449219 L 12.929688 14.703125 Z M 12.671875 14.449219 "/>
<path style=" stroke:none;fill-rule:nonzero;fill:rgb(38.039216%,38.039216%,38.039216%);fill-opacity:1;" d="M 3.101562 14.703125 L 3.363281 14.957031 Z M 3.101562 14.703125 "/>
<path style=" stroke:none;fill-rule:nonzero;fill:rgb(18.039216%,18.039216%,18.039216%);fill-opacity:1;" d="M 10.34375 14.703125 L 10.601562 14.957031 Z M 10.34375 14.703125 "/>
<path style=" stroke:none;fill-rule:nonzero;fill:rgb(65.098039%,65.098039%,65.098039%);fill-opacity:1;" d="M 12.414062 14.703125 L 12.671875 14.957031 L 12.414062 14.703125 M 4.136719 14.957031 L 4.398438 15.210938 Z M 4.136719 14.957031 "/>
<path style=" stroke:none;fill-rule:nonzero;fill:rgb(18.039216%,18.039216%,18.039216%);fill-opacity:1;" d="M 10.601562 14.957031 L 10.863281 15.210938 Z M 10.601562 14.957031 "/>
<path style=" stroke:none;fill-rule:nonzero;fill:rgb(38.039216%,38.039216%,38.039216%);fill-opacity:1;" d="M 10.949219 15.125 L 11.035156 15.296875 Z M 10.949219 15.125 "/>
<path style=" stroke:none;fill-rule:nonzero;fill:rgb(65.098039%,65.098039%,65.098039%);fill-opacity:1;" d="M 12.15625 14.957031 L 12.414062 15.210938 Z M 12.15625 14.957031 "/>
<path style=" stroke:none;fill-rule:nonzero;fill:rgb(38.039216%,38.039216%,38.039216%);fill-opacity:1;" d="M 3.363281 15.210938 L 3.621094 15.464844 L 3.363281 15.210938 M 4.398438 15.210938 L 4.65625 15.464844 Z M 4.398438 15.210938 "/>
<path style=" stroke:none;fill-rule:nonzero;fill:rgb(65.098039%,65.098039%,65.098039%);fill-opacity:1;" d="M 11.898438 15.210938 L 12.15625 15.464844 L 11.898438 15.210938 M 3.621094 15.464844 L 3.878906 15.71875 Z M 3.621094 15.464844 "/>
<path style=" stroke:none;fill-rule:nonzero;fill:rgb(38.039216%,38.039216%,38.039216%);fill-opacity:1;" d="M 4.65625 15.464844 L 4.914062 15.71875 Z M 4.65625 15.464844 "/>
<path style=" stroke:none;fill-rule:nonzero;fill:rgb(65.098039%,65.098039%,65.098039%);fill-opacity:1;" d="M 10.601562 15.464844 L 10.863281 15.71875 L 10.601562 15.464844 M 11.636719 15.464844 L 11.898438 15.71875 L 11.636719 15.464844 M 3.878906 15.71875 L 4.136719 15.972656 Z M 3.878906 15.71875 "/>
<path style=" stroke:none;fill-rule:nonzero;fill:rgb(38.039216%,38.039216%,38.039216%);fill-opacity:1;" d="M 4.914062 15.71875 L 5.171875 15.972656 Z M 4.914062 15.71875 "/>
<path style=" stroke:none;fill-rule:nonzero;fill:rgb(65.098039%,65.098039%,65.098039%);fill-opacity:1;" d="M 10.34375 15.71875 L 10.601562 15.972656 L 10.34375 15.71875 M 11.378906 15.71875 L 11.636719 15.972656 L 11.378906 15.71875 M 4.136719 15.972656 L 4.398438 16.226562 L 4.136719 15.972656 M 5.171875 15.972656 L 5.429688 16.226562 Z M 5.171875 15.972656 "/>
<path style=" stroke:none;fill-rule:nonzero;fill:rgb(18.039216%,18.039216%,18.039216%);fill-opacity:1;" d="M 5.429688 15.972656 L 5.691406 16.226562 L 5.429688 15.972656 M 9.828125 15.972656 L 10.085938 16.226562 Z M 9.828125 15.972656 "/>
<path style=" stroke:none;fill-rule:nonzero;fill:rgb(65.098039%,65.098039%,65.098039%);fill-opacity:1;" d="M 10.085938 15.972656 L 10.34375 16.226562 L 10.085938 15.972656 M 11.121094 15.972656 L 11.378906 16.226562 L 11.121094 15.972656 M 4.398438 16.226562 L 4.65625 16.480469 L 4.398438 16.226562 M 5.691406 16.226562 L 5.949219 16.480469 Z M 5.691406 16.226562 "/>
<path style=" stroke:none;fill-rule:nonzero;fill:rgb(18.039216%,18.039216%,18.039216%);fill-opacity:1;" d="M 5.949219 16.226562 L 6.207031 16.480469 L 5.949219 16.226562 M 9.308594 16.226562 L 9.570312 16.480469 Z M 9.308594 16.226562 "/>
<path style=" stroke:none;fill-rule:nonzero;fill:rgb(65.098039%,65.098039%,65.098039%);fill-opacity:1;" d="M 9.570312 16.226562 L 9.828125 16.480469 L 9.570312 16.226562 M 10.863281 16.226562 L 11.121094 16.480469 L 10.863281 16.226562 M 4.65625 16.480469 L 4.914062 16.730469 L 4.65625 16.480469 M 6.207031 16.480469 L 6.464844 16.730469 Z M 6.207031 16.480469 "/>
<path style=" stroke:none;fill-rule:nonzero;fill:rgb(38.039216%,38.039216%,38.039216%);fill-opacity:1;" d="M 6.464844 16.480469 L 6.722656 16.730469 Z M 6.464844 16.480469 "/>
<path style=" stroke:none;fill-rule:nonzero;fill:rgb(18.039216%,18.039216%,18.039216%);fill-opacity:1;" d="M 6.722656 16.480469 L 6.984375 16.730469 L 6.722656 16.480469 M 8.535156 16.480469 L 8.792969 16.730469 Z M 8.535156 16.480469 "/>
<path style=" stroke:none;fill-rule:nonzero;fill:rgb(38.039216%,38.039216%,38.039216%);fill-opacity:1;" d="M 8.792969 16.480469 L 9.050781 16.730469 Z M 8.792969 16.480469 "/>
<path style=" stroke:none;fill-rule:nonzero;fill:rgb(65.098039%,65.098039%,65.098039%);fill-opacity:1;" d="M 9.050781 16.480469 L 9.308594 16.730469 Z M 9.050781 16.480469 "/>
<path style=" stroke:none;fill-rule:nonzero;fill:rgb(38.039216%,38.039216%,38.039216%);fill-opacity:1;" d="M 10.601562 16.480469 L 10.863281 16.730469 Z M 10.601562 16.480469 "/>
<path style=" stroke:none;fill-rule:nonzero;fill:rgb(18.039216%,18.039216%,18.039216%);fill-opacity:1;" d="M 4.914062 16.730469 L 5.171875 16.984375 Z M 4.914062 16.730469 "/>
<path style=" stroke:none;fill-rule:nonzero;fill:rgb(65.098039%,65.098039%,65.098039%);fill-opacity:1;" d="M 5.171875 16.730469 L 5.429688 16.984375 L 5.171875 16.730469 M 7.671875 16.816406 L 7.84375 16.902344 L 7.671875 16.816406 M 10.085938 16.730469 L 10.34375 16.984375 Z M 10.085938 16.730469 "/>
<path style=" stroke:none;fill-rule:nonzero;fill:rgb(18.039216%,18.039216%,18.039216%);fill-opacity:1;" d="M 10.34375 16.730469 L 10.601562 16.984375 Z M 10.34375 16.730469 "/>
<path style=" stroke:none;fill-rule:nonzero;fill:rgb(38.039216%,38.039216%,38.039216%);fill-opacity:1;" d="M 5.429688 16.984375 L 5.691406 17.238281 Z M 5.429688 16.984375 "/>
<path style=" stroke:none;fill-rule:nonzero;fill:rgb(65.098039%,65.098039%,65.098039%);fill-opacity:1;" d="M 5.691406 16.984375 L 5.949219 17.238281 L 5.691406 16.984375 M 9.570312 16.984375 L 9.828125 17.238281 Z M 9.570312 16.984375 "/>
<path style=" stroke:none;fill-rule:nonzero;fill:rgb(18.039216%,18.039216%,18.039216%);fill-opacity:1;" d="M 9.828125 16.984375 L 10.085938 17.238281 L 9.828125 16.984375 M 5.949219 17.238281 L 6.207031 17.492188 Z M 5.949219 17.238281 "/>
<path style=" stroke:none;fill-rule:nonzero;fill:rgb(38.039216%,38.039216%,38.039216%);fill-opacity:1;" d="M 6.207031 17.238281 L 6.464844 17.492188 Z M 6.207031 17.238281 "/>
<path style=" stroke:none;fill-rule:nonzero;fill:rgb(65.098039%,65.098039%,65.098039%);fill-opacity:1;" d="M 6.464844 17.238281 L 6.722656 17.492188 L 6.464844 17.238281 M 8.792969 17.238281 L 9.050781 17.492188 Z M 8.792969 17.238281 "/>
<path style=" stroke:none;fill-rule:nonzero;fill:rgb(38.039216%,38.039216%,38.039216%);fill-opacity:1;" d="M 9.050781 17.238281 L 9.308594 17.492188 Z M 9.050781 17.238281 "/>
<path style=" stroke:none;fill-rule:nonzero;fill:rgb(18.039216%,18.039216%,18.039216%);fill-opacity:1;" d="M 9.308594 17.238281 L 9.570312 17.492188 L 9.308594 17.238281 M 6.984375 17.492188 L 6.984375 17.746094 L 8.535156 17.746094 Z M 6.984375 17.492188 "/>
</g>
</svg>
